<?xml version="1.0" encoding="utf-8"?>
<!-- Generator: Adobe Illustrator 16.0.0, SVG Export Plug-In . SVG Version: 6.00 Build 0)  -->
<!DOCTYPE svg PUBLIC "-//W3C//DTD SVG 1.1//EN" "http://www.w3.org/Graphics/SVG/1.1/DTD/svg11.dtd">
<svg version="1.1" xmlns="http://www.w3.org/2000/svg" xmlns:xlink="http://www.w3.org/1999/xlink" x="0px" y="0px"
	 width="284.333px" height="72.667px" viewBox="-17.5 88.167 284.333 72.667" enable-background="new -17.5 88.167 284.333 72.667"
	 xml:space="preserve">
<g id="fond">
	<rect x="-17.5" y="88.167" fill="#FFFFFF" width="284.333" height="72.667"/>
</g>
<g id="Calque_1">
	<path d="M88.875,121.9375v16.625h-8.25v-15c0-1.75-0.5-2.25-1.25-2.25c-0.875,0-1.875,0.75-2.75,2.25v15h-8.25v-31.25l8.25-0.875
		v11.75c1.875-2,3.75-2.875,6.25-2.875C86.625,115.1875,88.875,117.6875,88.875,121.9375z M112.875,129.6875H99.5
		c0.5,3.25,2,3.75,4.5,3.75c1.625,0,3.125-0.625,5-2l3.375,4.625c-2.5,2.125-5.875,3.375-9.125,3.375c-8.125,0-12-5.125-12-12
		c0-6.625,3.75-12.125,11.125-12.125c6.5,0,10.875,4.25,10.875,11.75C113.125,127.6875,113,128.8125,112.875,129.6875
		L112.875,129.6875z M105,124.6875c0-2.25-0.5-4.125-2.625-4.125c-1.75,0-2.625,1-3,4.5H105V124.6875z M115.125,132.0625v-24.875
		l8.25-0.875v25.375c0,0.75,0.375,1.125,1,1.125c0.25,0,0.625,0,0.875-0.25l1.5,5.875c-1.5,0.5-3,0.75-4.5,0.75
		C117.625,139.4375,115.125,136.6875,115.125,132.0625z M127.625,132.0625v-24.875l8.25-0.875v25.375c0,0.75,0.375,1.125,1,1.125
		c0.25,0,0.625,0,0.875-0.25l1.5,5.875c-1.5,0.5-3,0.75-4.5,0.75C130.125,139.4375,127.625,136.6875,127.625,132.0625z
		 M161.75,127.3125c0,7.375-4.375,12-11.5,12c-7,0-11.5-4.25-11.5-12.125c0-7.375,4.375-12,11.5-12
		C157.25,115.1875,161.75,119.5625,161.75,127.3125z M147.375,127.3125c0,4.5,0.875,6.125,3,6.125c2,0,3-1.75,3-6.125
		c0-4.5-0.875-6.125-3-6.125S147.25,123.0625,147.375,127.3125z M184.75,133.9375l-1.625,5.375c-2.875-0.25-4.75-1-6-3.125
		c-1.625,2.5-4.125,3.25-6.75,3.25c-4.5,0-7.375-3-7.375-7.125c0-5,3.75-7.75,10.75-7.75h1.625v-0.625c0-2.25-0.75-2.875-3.25-2.875
		c-2,0.125-3.875,0.5-5.75,1.125l-1.75-5.25c2.75-1.125,5.75-1.75,8.75-1.75c7.125,0,10,2.75,10,8.25v7.75
		C183.375,132.8125,183.75,133.5625,184.75,133.9375L184.75,133.9375z M175.375,132.1875v-3.375H174.5
		c-2.375,0-3.375,0.75-3.375,2.5c0,1.25,0.75,2.125,1.875,2.125C173.875,133.5625,174.875,133.0625,175.375,132.1875z
		 M204.5,118.1875l-2.875,4.5c-1.625-1-3.375-1.625-5.25-1.625c-1.375,0-1.875,0.375-1.875,1c0,0.75,0.25,1.125,4.5,2.375
		c4.25,1.375,6.5,3.125,6.5,7.25c0,4.625-4.375,7.75-10.5,7.75c-3.875,0-7.5-1.375-9.75-3.625l3.875-4.375
		c1.625,1.25,3.625,2.25,5.625,2.25c1.5,0,2.375-0.5,2.375-1.375c0-1.125-0.5-1.375-4.25-2.5c-4.125-1.25-6.5-3.625-6.5-7.25
		c0-4,3.5-7.25,9.625-7.25C199.25,115.1875,202.5,116.3125,204.5,118.1875L204.5,118.1875z M225.125,118.1875l-2.875,4.5
		c-1.625-1-3.375-1.625-5.25-1.625c-1.375,0-1.875,0.375-1.875,1c0,0.75,0.25,1.125,4.5,2.375c4.25,1.375,6.5,3.125,6.5,7.25
		c0,4.625-4.375,7.75-10.5,7.75c-3.875,0-7.5-1.375-9.75-3.625l3.875-4.375c1.625,1.25,3.625,2.25,5.625,2.25
		c1.5,0,2.375-0.5,2.375-1.375c0-1.125-0.5-1.375-4.25-2.5c-4.125-1.25-6.5-3.625-6.5-7.25c0-4,3.5-7.25,9.625-7.25
		C219.875,115.1875,223,116.3125,225.125,118.1875L225.125,118.1875z M250,127.3125c0,7.375-4.375,12-11.5,12
		c-7,0-11.5-4.25-11.5-12.125c0-7.375,4.375-12,11.5-12C245.5,115.1875,250,119.5625,250,127.3125z M235.625,127.3125
		c0,4.5,0.875,6.125,3,6.125c2,0,3-1.75,3-6.125c0-4.5-0.875-6.125-3-6.125S235.5,123.0625,235.625,127.3125z"/>
	
		<linearGradient id="SVGID_1_" gradientUnits="userSpaceOnUse" x1="142.5039" y1="453.2354" x2="162.4524" y2="487.3936" gradientTransform="matrix(1.25 0 0 1.25 -172.7246 -454.8828)">
		<stop  offset="0" style="stop-color:#498A63"/>
		<stop  offset="0.25" style="stop-color:#61B984"/>
	</linearGradient>
	<path fill="url(#SVGID_1_)" d="M16.125,141.4375c-8.25-9.5-2.75-33.5,0.75-33.5c-6.75-0.25-18.25,4.25-16.625,20.375
		c1.875,15,15.375,25.5,30.125,23.625c4.75-0.625,9.125-2.5,12.875-5.375C30.25,155.9375,21.5,147.5625,16.125,141.4375z"/>
	
		<linearGradient id="SVGID_2_" gradientUnits="userSpaceOnUse" x1="158.0586" y1="483.2207" x2="178.6999" y2="450.1406" gradientTransform="matrix(1.25 0 0 1.25 -172.7246 -454.8828)">
		<stop  offset="0" style="stop-color:#89356D"/>
		<stop  offset="0.21" style="stop-color:#B94794"/>
	</linearGradient>
	<path fill="url(#SVGID_2_)" d="M46.5,125.1875c-6.875,13.875-28,19.75-30.375,16.125c4.125,6.125,14.375,14.5,27.25,5
		c11.75-9.125,13.875-26.25,4.75-38.125c-2.875-3.75-6.75-6.625-11.125-8.5C51.625,106.3125,50.125,117.9375,46.5,125.1875z"/>
	
		<linearGradient id="SVGID_3_" gradientUnits="userSpaceOnUse" x1="141.4307" y1="451.0859" x2="175.8429" y2="463.4714" gradientTransform="matrix(1.25 0 0 1.25 -172.7246 -454.8828)">
		<stop  offset="0.6" style="stop-color:#F59C1C"/>
		<stop  offset="1" style="stop-color:#C7702B"/>
	</linearGradient>
	<path fill="url(#SVGID_3_)" d="M16.875,107.9375c14.875-1.625,31.75,13.75,29.625,17.375c4.125-7.25,5.125-18.875-9.375-25.5
		C23.25,94.1875,7.5,100.9375,2,114.9375c-1.75,4.375-2.375,9.125-1.75,13.75C-0.75,112.6875,11.375,108.4375,16.875,107.9375z"/>
</g>
</svg>
