<?xml version="1.0" encoding="utf-8"?>
<!-- Generator: Adobe Illustrator 16.0.0, SVG Export Plug-In . SVG Version: 6.00 Build 0)  -->
<!DOCTYPE svg PUBLIC "-//W3C//DTD SVG 1.1//EN" "http://www.w3.org/Graphics/SVG/1.1/DTD/svg11.dtd">
<svg version="1.1" id="Calque_1" xmlns="http://www.w3.org/2000/svg" xmlns:xlink="http://www.w3.org/1999/xlink" x="0px" y="0px"
	 width="47px" height="21.002px" viewBox="1214.833 1215.761 47 21.002" enable-background="new 1214.833 1215.761 47 21.002"
	 xml:space="preserve">
<g>
	<rect x="1214.833" y="1215.761" fill="#FFFFFF" width="46.999" height="21.002"/>
	<path fill="#23BEC7" d="M1238.88,1227.149c0.688-0.604,1.246-1.173,1.981-1.482c0.43-0.181,0.909-0.437,1.317-0.041
		c0.409,0.396,0.152,0.83,0.027,1.257c-0.249,0.854-0.499,1.711-0.725,2.571c-0.067,0.25-0.18,0.539,0.076,0.763
		c0.256,0.224,0.577,0.075,0.831-0.055c0.937-0.479,1.699-1.048,1.582-2.31c-0.07-0.755,0-1.558,0.697-2.097
		c0.27-0.213,0.596-0.461,0.938-0.224c0.343,0.237,0.098,0.539,0,0.809c-0.33,1.017-0.422,2.096-0.27,3.153
		c0.035,0.237,0,0.579,0.219,0.666c0.299,0.113,0.433-0.27,0.625-0.426c0.192-0.157,0.322-0.378,0.488-0.562
		c0.442-0.482,0.687-0.867,0.098-1.527c-0.682-0.763-0.477-2.256,0.194-2.965c0.379-0.455,1.003-0.617,1.554-0.404
		c0.585,0.213,0.777,0.717,0.792,1.307c0.016,0.663-0.269,1.245-0.492,1.887c0.652,0.165,1.056-0.202,1.422-0.599
		c0.884-0.959,1.908-1.568,3.267-1.426c0.982,0.103,1.547,0.634,1.496,1.407c-0.068,0.592-0.602,1.018-1.193,0.95
		c-0.121-0.014-0.238-0.048-0.35-0.101c-0.307-0.165-0.27-0.315,0-0.472c0.215-0.093,0.322-0.334,0.252-0.556
		c-0.088-0.263-0.326-0.445-0.602-0.461c-0.371-0.055-0.75,0.029-1.063,0.237c-0.986,0.631-1.539,2.383-1.078,3.45
		c0.27,0.642,0.771,0.763,1.291,0.307c0.287-0.274,0.504-0.615,0.631-0.991c0.076-0.235,0.184-0.458,0.32-0.663
		c0.246-0.326,0.586-0.615,1.012-0.439c0.426,0.175,0.207,0.617,0.137,0.916c-0.25,1.038-0.463,2.049,0.416,2.922
		c0.092,0.084,0.098,0.228,0.014,0.32c-0.004,0.005-0.01,0.01-0.014,0.014c-0.109,0.107-0.275,0.131-0.41,0.06
		c-0.615-0.216-1.119-0.668-1.402-1.256c-0.088-0.194-0.127-0.478-0.441-0.199c-0.563,0.576-1.463,0.65-2.114,0.175
		c-0.766-0.49-1.041-1.227-0.971-2.107c0.014-0.173,0.035-0.34,0.057-0.539c-0.88,0.072-1.597,0.27-2.1,1.078
		c-0.438,0.668-1.033,1.218-1.732,1.601c-0.92,0.539-1.279,0.372-1.525-0.639c-0.035-0.141-0.066-0.27-0.119-0.539
		c-0.598,0.534-1.282,0.964-2.022,1.27c-1.394,0.496-2.203-0.143-1.998-1.617c0.127-0.757,0.336-1.498,0.624-2.21
		c0.064-0.176,0.22-0.391,0-0.539c-0.162-0.103-0.333,0.07-0.459,0.178c-0.859,0.73-1.616,1.539-1.864,2.695
		c-0.058,0.341-0.155,0.674-0.291,0.992c-0.168,0.438-0.613,0.704-1.078,0.646c-0.485-0.086-0.172-0.582-0.307-0.887
		c-0.518,0.27-1.014,0.539-1.525,0.773c-0.37,0.17-0.852,0.305-1.122-0.014c-0.45-0.539-0.754-0.353-1.229-0.051
		c-0.692,0.441-1.488,0.253-2.116-0.478c-0.318-0.369-0.482-0.345-0.79-0.016c-0.622,0.642-1.361,1.158-2.178,1.522
		c-3.205,1.522-6.355-0.186-6.533-3.717c-0.21-3.986,1.485-7.158,4.816-9.371c0.871-0.605,1.968-0.788,2.989-0.499
		c1.219,0.319,2.045,1.453,1.973,2.712c-0.081,1.201-0.93,2.212-2.1,2.498c-0.191,0.043-0.439,0.119-0.539-0.062
		c-0.151-0.243,0.089-0.407,0.253-0.539c0.9-0.761,1.054-1.749,0.884-2.836c-0.162-1.013-0.884-1.423-1.846-1.054
		c-0.69,0.287-1.3,0.739-1.773,1.318c-1.592,1.759-2.587,3.976-2.844,6.334c-0.129,1.018,0.052,2.051,0.521,2.965
		c0.685,1.307,1.846,1.887,3.28,1.547c1.134-0.284,2.176-0.857,3.021-1.666c0.239-0.25,0.368-0.586,0.356-0.933
		c0.197-2.048,1.967-3.585,3.946-3.434c0.477,0.015,0.932,0.207,1.275,0.539c0.334,0.313,0.435,0.802,0.25,1.221
		c-0.191,0.464-0.617,0.615-1.1,0.591c-0.205,0.021-0.407-0.061-0.539-0.219c-0.178-0.27,0.162-0.288,0.27-0.423
		c0.302-0.378,0.132-0.827-0.385-0.933c-0.521-0.117-1.065,0.056-1.423,0.453c-0.743,0.754-1.08,1.819-0.906,2.864
		c0.054,0.399,0.224,0.79,0.663,0.908c0.439,0.119,0.725-0.21,0.995-0.517c0.2-0.255,0.344-0.549,0.423-0.863
		c0.064-0.295,0.225-0.56,0.456-0.754c0.27-0.208,0.566-0.378,0.884-0.191c0.318,0.186,0.124,0.498,0.124,0.757
		c0,0.475-0.512,1.027,0.122,1.391c0.339,0.194,1.708-0.838,1.816-1.323c0.17-0.773,0.307-1.555,0.461-2.331
		c0.019-0.273,0.123-0.535,0.296-0.747c0.268-0.306,0.698-0.413,1.078-0.27c0.407,0.17,0.205,0.539,0.165,0.852
		C1238.964,1226.642,1238.932,1226.831,1238.88,1227.149L1238.88,1227.149z M1247.985,1225.354
		c-0.071-0.189-0.184-0.372-0.416-0.348c-0.23,0.023-0.299,0.236-0.316,0.437c-0.061,0.599,0.168,1.19,0.616,1.593
		C1248.124,1226.511,1248.165,1225.908,1247.985,1225.354z"/>
</g>
</svg>
